<?xml version="1.0" standalone="no"?>
<!DOCTYPE svg PUBLIC "-//W3C//DTD SVG 20010904//EN"
 "http://www.w3.org/TR/2001/REC-SVG-20010904/DTD/svg10.dtd">
<svg version="1.0" xmlns="http://www.w3.org/2000/svg"
 width="300.000000pt" height="300.000000pt" viewBox="0 0 300.000000 300.000000"
 preserveAspectRatio="xMidYMid meet">

<g transform="translate(0.000000,300.000000) scale(0.100000,-0.100000)"
fill="#000000" stroke="none">
<path d="M1 2308 c1 -782 -7 -730 69 -480 18 57 42 115 55 130 l23 27 164 -2
c154 -2 463 12 500 23 13 4 19 -4 27 -33 14 -50 15 -48 -15 -62 l-27 -12 8
-82 c5 -45 9 -113 9 -152 l1 -70 -43 -24 c-29 -16 -40 -26 -32 -31 9 -6 7 -10
-7 -14 -16 -5 -19 -15 -18 -59 1 -28 5 -72 9 -97 7 -42 5 -50 -33 -105 l-40
-60 29 -3 c16 -2 57 4 91 13 60 15 63 15 84 -5 11 -11 29 -43 39 -71 11 -29
44 -93 75 -143 l56 -91 0 -110 c0 -60 3 -115 8 -122 10 -16 -4 -73 -52 -216
-39 -116 -46 -156 -64 -405 l-4 -52 396 2 396 3 65 105 c37 58 71 105 76 105
21 0 32 17 37 52 2 21 12 90 21 153 10 63 19 133 22 155 3 22 7 54 9 70 2 17
28 111 57 210 44 153 52 193 52 265 1 73 -3 92 -26 138 -16 30 -25 60 -21 70
3 9 -14 -10 -39 -43 -48 -63 -81 -95 -99 -95 -6 0 -9 -6 -7 -12 3 -7 -1 -19
-9 -26 -7 -8 -10 -18 -7 -24 4 -7 2 -8 -4 -4 -7 4 -12 1 -12 -8 0 -9 -4 -16
-8 -16 -21 0 -19 15 9 53 33 45 41 79 13 56 -17 -14 -56 -94 -51 -107 7 -22
-111 -149 -147 -158 -14 -3 -26 -11 -26 -18 0 -6 -17 -11 -38 -12 -20 0 -67
-3 -105 -7 -52 -4 -70 -2 -82 9 -8 9 -15 20 -15 25 0 5 -8 9 -19 9 -29 0 -87
68 -132 155 -22 44 -54 97 -70 118 -37 46 -50 87 -40 124 6 21 1 42 -20 83
-64 126 -63 124 -53 181 l9 54 95 6 c52 4 115 14 139 23 53 20 55 20 48 1 -4
-8 -2 -17 3 -20 6 -4 10 -15 10 -27 0 -13 5 -18 14 -15 18 7 31 -22 16 -37
-13 -13 -13 -28 2 -63 12 -28 12 -28 19 22 4 28 12 70 18 95 5 25 10 70 11
101 0 51 -3 58 -37 88 -45 40 -67 51 -171 87 l-83 28 7 36 c4 19 8 58 9 86 5
109 64 159 200 166 49 3 96 12 119 23 22 11 56 18 78 16 21 -1 65 3 98 9 64
12 89 5 120 -31 8 -11 33 -21 55 -24 27 -4 35 -3 26 4 -10 6 -4 8 18 6 41 -3
71 -44 71 -97 0 -32 8 -45 49 -85 60 -59 62 -69 63 -345 1 -109 4 -198 8 -198
8 0 20 84 20 140 0 20 7 45 15 57 10 14 12 24 5 28 -5 3 -10 27 -10 53 0 40 5
51 37 84 28 28 33 38 20 38 -14 0 -16 6 -11 28 12 48 23 55 79 47 27 -3 180
-10 339 -15 340 -9 325 -5 369 -121 53 -143 69 -184 77 -204 5 -11 9 277 9
663 l1 682 -330 0 c-181 0 -330 -3 -330 -7 0 -5 25 -60 56 -123 30 -63 87
-185 126 -270 39 -85 86 -188 104 -229 63 -138 64 -137 -204 -146 l-214 -7 26
51 c31 61 33 81 6 81 -22 0 -27 16 -7 23 8 3 6 11 -8 27 -11 12 -19 32 -17 46
2 13 -4 47 -13 74 -12 37 -22 50 -36 50 -10 0 -18 5 -17 12 2 6 -15 21 -38 33
-37 18 -39 22 -25 35 14 13 14 15 -2 18 -9 2 -17 11 -17 20 -1 15 -2 15 -11 0
-17 -29 -32 -21 -25 12 3 18 2 29 -3 25 -13 -8 -57 11 -81 35 -12 12 -27 19
-33 17 -7 -2 -37 10 -67 26 -123 66 -148 77 -210 93 -36 9 -87 29 -115 44 -52
30 -138 46 -228 43 -37 -1 -55 -8 -81 -30 -17 -16 -73 -49 -124 -73 -50 -24
-89 -47 -87 -50 6 -10 -84 -58 -119 -64 -15 -3 -33 -9 -39 -14 -17 -13 -66
-21 -72 -12 -7 12 -76 -24 -103 -53 -20 -21 -23 -32 -18 -68 3 -24 10 -47 16
-53 6 -6 3 -14 -8 -22 -14 -12 -15 -15 -3 -23 12 -8 8 -15 -17 -36 -28 -24
-32 -32 -30 -72 1 -36 8 -54 32 -81 17 -19 31 -47 32 -62 1 -25 -2 -28 -44
-34 -24 -3 -109 -6 -188 -6 -143 0 -144 0 -160 25 -15 24 -15 29 -1 63 44 107
106 240 206 446 61 126 111 231 111 233 0 1 -133 3 -295 3 l-295 0 1 -692z
m664 142 c3 -5 2 -10 -4 -10 -5 0 -13 5 -16 10 -3 6 -2 10 4 10 5 0 13 -4 16
-10z m-20 -49 c-10 -17 -35 6 -35 32 l0 21 21 -21 c12 -11 18 -26 14 -32z m1
-48 c-7 -7 -26 7 -26 19 0 6 6 6 15 -2 9 -7 13 -15 11 -17z m644 -584 c0 -5
-7 -9 -15 -9 -15 0 -20 12 -9 23 8 8 24 -1 24 -14z m-30 -23 c0 -2 -9 -6 -20
-9 -11 -3 -20 -1 -20 4 0 5 9 9 20 9 11 0 20 -2 20 -4z m687 -706 c-6 -105
-54 -205 -136 -288 -69 -70 -94 -87 -138 -95 -26 -5 -31 -3 -26 8 3 8 0 15 -6
15 -11 0 -10 8 3 65 8 40 116 202 147 220 13 8 89 112 89 122 0 4 12 20 27 35
24 25 28 26 36 12 5 -9 7 -52 4 -94z"/>
<path d="M1755 1955 c-114 -20 -202 -61 -210 -99 -8 -36 9 -91 27 -88 11 2 18
-6 20 -20 2 -16 16 -27 48 -40 83 -32 188 -17 221 30 8 11 30 29 49 39 38 21
51 57 25 67 -9 3 -58 9 -110 12 -91 7 -121 18 -72 28 61 13 121 15 138 5 11
-5 29 -7 39 -4 17 5 18 10 9 27 -10 19 -83 59 -104 57 -5 -1 -41 -7 -80 -14z
m-15 -195 c28 0 54 17 63 42 2 7 8 10 12 6 11 -10 -28 -57 -47 -58 -10 0 -18
-5 -18 -10 0 -6 14 -4 35 4 34 14 53 7 40 -14 -9 -15 -108 -13 -103 2 3 7 -13
21 -35 30 -34 16 -38 20 -26 34 12 14 15 13 32 -10 12 -17 28 -26 47 -26z"/>
<path d="M2145 1870 c-13 -15 -16 -28 -11 -56 7 -36 8 -36 22 -15 19 26 30 91
17 91 -6 0 -18 -9 -28 -20z"/>
<path d="M324 1711 c-27 -12 -79 -75 -100 -121 -8 -19 -19 -44 -24 -55 -5 -11
-46 -119 -90 -240 -44 -121 -88 -236 -96 -255 -10 -25 -14 -62 -12 -128 l3
-93 115 86 c63 48 130 97 148 111 33 25 44 64 18 64 -22 0 -58 66 -59 108 0
20 8 55 18 77 35 75 186 265 211 265 2 0 15 10 28 23 12 12 38 36 57 53 56 48
56 62 1 86 -52 23 -182 34 -218 19z"/>
<path d="M1218 1463 c-42 -44 -80 -92 -84 -107 -5 -20 2 -44 25 -91 18 -36 37
-65 42 -65 6 0 7 5 4 10 -3 6 -2 10 2 10 5 0 23 -24 40 -53 44 -74 58 -83 151
-101 82 -15 85 -15 129 6 39 18 43 23 27 29 -10 4 -41 8 -67 8 -40 1 -53 6
-82 35 -46 44 -47 67 -2 60 23 -3 15 3 -30 22 -101 44 -92 54 45 53 64 0 148
2 186 6 60 6 68 5 63 -9 -5 -13 0 -13 33 4 52 26 68 25 76 -5 9 -35 28 -17 49
45 19 57 16 66 -49 129 -56 55 -71 48 -24 -11 49 -60 51 -65 25 -66 -35 0 -67
-13 -67 -27 0 -40 -237 -68 -291 -34 -24 14 -6 18 101 21 97 3 105 4 105 23 0
13 -6 20 -17 19 -10 -1 -18 4 -18 12 0 9 -11 14 -31 14 -27 0 -30 2 -19 15 7
8 24 15 39 15 14 0 33 5 41 11 11 8 4 9 -29 4 -24 -3 -56 -15 -71 -25 -41 -29
-68 -25 -107 17 -28 29 -37 33 -44 22 -15 -24 -63 10 -69 50 l-5 33 -77 -79z"/>
<path d="M1215 1150 c3 -5 8 -10 11 -10 2 0 4 5 4 10 0 6 -5 10 -11 10 -5 0
-7 -4 -4 -10z"/>
<path d="M2950 733 c0 -10 11 -40 24 -68 l24 -50 1 56 c1 54 -10 79 -36 79 -7
0 -13 -8 -13 -17z"/>
<path d="M0 288 c0 -141 3 -263 6 -272 8 -22 94 -23 94 -1 0 19 17 19 50 0 19
-11 66 -14 195 -15 l170 0 0 29 c0 24 -24 55 -125 163 -179 191 -210 220 -281
268 -35 24 -74 52 -86 63 l-23 20 0 -255z m400 -168 c0 -5 -2 -10 -4 -10 -3 0
-8 5 -11 10 -3 6 -1 10 4 10 6 0 11 -4 11 -10z"/>
<path d="M2875 264 c-137 -23 -287 -54 -375 -79 -47 -13 -118 -26 -159 -29
-134 -11 -269 -44 -426 -103 -129 -48 -133 -53 -45 -52 55 0 70 3 55 10 -16 8
-16 8 5 2 29 -8 100 -9 185 -3 33 2 70 0 82 -4 17 -5 23 -2 28 15 6 16 13 20
36 17 17 -3 30 1 33 8 3 7 24 15 48 18 56 6 279 36 298 40 67 13 91 19 96 27
7 12 41 11 49 -1 3 -5 -5 -37 -18 -70 l-25 -60 63 0 c55 0 65 3 70 20 10 31
105 170 116 170 6 0 9 20 8 45 -3 52 3 50 -124 29z m-235 -64 c0 -5 -5 -10
-11 -10 -5 0 -7 5 -4 10 3 6 8 10 11 10 2 0 4 -4 4 -10z m-135 -70 c3 -5 1
-10 -4 -10 -6 0 -11 5 -11 10 0 6 2 10 4 10 3 0 8 -4 11 -10z"/>
</g>
</svg>
